<svg xmlns="http://www.w3.org/2000/svg" xmlns:xlink="http://www.w3.org/1999/xlink" width="500px" height="500px" viewBox="0 0 500 500">
    <g id="b4782656-1ae5-41ba-846a-766be4832d9e">
<rect style="stroke: rgb(193,193,193); stroke-width: 0; stroke-dasharray: none; stroke-linecap: butt; stroke-dashoffset: 0; stroke-linejoin: miter; stroke-miterlimit: 4; fill: rgb(0,0,0); fill-opacity: 0; fill-rule: nonzero; opacity: 0;" x="-250" y="-250" rx="0" ry="0" width="500" height="500" transform="matrix(1 0 0 1 250 250)"></rect>
</g>
<g id="ff39b959-678a-416b-844c-c493c0dc27a5">
<g style="">
		<g id="ff39b959-678a-416b-844c-c493c0dc27a5-child-0">
<path style="stroke: none; stroke-width: 0; stroke-dasharray: none; stroke-linecap: butt; stroke-dashoffset: 0; stroke-linejoin: miter; stroke-miterlimit: 4; fill: rgb(0,0,0); fill-rule: nonzero; opacity: 1;" d="M100,500.00005c-55.22847,0 -100,-44.77152 -100,-100v-300.00005c0,-55.22847 44.77152,-100 100,-100h300.00005c55.22847,0 100,44.77152 100,100v300.00005c0,55.22847 -44.77152,100 -100,100z" stroke-linecap="round"></path>
</g>
</g>
</g>
<g style="" id="4531629b-49bd-41b0-b487-037344a03fbf">
<g style=""><path d="M-7.32479 -13.84469L-30.20405 -46.61656L-6.21170 -64.40569L11.12955 -36.90611L11.84060 -37.56757C15.65033 -40.73457 16.41551 -46.35015 13.71835 -52.13111L5.08427 -67.13741L31.72072 -43.81125L12.31318 -34.66499L30.73308 36.94743L11.36679 15.74840L-6.32342 -12.20004L-6.99184 -11.23903C-10.60434 -5.67595 -11.35546 0.50392 -8.75744 4.20052L-0.17630 16.98698L-31.72072 38.69150Z" fill="rgb(255, 205, 5)" transform="matrix(3.36623 0 0 3.36623 249.999989 249.999984) translate(4.1514400805908735e-8 14.222956010533082)"></path></g></g>
<g style="" id="ba9666d5-c089-4772-aa6d-975b9be8883a">
<g style="opacity: 0.61; visibility: hidden;"><path d="M-58.63232 -0.08264Q-62.25049 -1.12268 -63.89844 -2.63879Q-65.54639 -4.15490 -65.54639 -6.38146Q-65.54639 -8.90100 -63.53223 -10.54894Q-61.51807 -12.19689 -58.29541 -12.19689Q-56.09814 -12.19689 -54.37695 -11.34728Q-52.65576 -10.49768 -51.71094 -9.00353Q-50.76611 -7.50939 -50.76611 -5.73693L-53.59326 -5.73693Q-53.59326 -7.67053 -54.82373 -8.77648Q-56.05420 -9.88244 -58.29541 -9.88244Q-60.37549 -9.88244 -61.54004 -8.96691Q-62.70459 -8.05139 -62.70459 -6.42541Q-62.70459 -5.12170 -61.59863 -4.22082Q-60.49268 -3.31994 -57.83398 -2.57287Q-55.17529 -1.82580 -53.67383 -0.92492Q-52.17236 -0.02404 -51.44727 1.17713Q-50.72217 2.37830 -50.72217 4.00428Q-50.72217 6.59705 -52.74365 8.15711Q-54.76514 9.71717 -58.14893 9.71717Q-60.34619 9.71717 -62.25049 8.87488Q-64.15479 8.03260 -65.18750 6.56775Q-66.22021 5.10291 -66.22021 3.24256L-63.39307 3.24256Q-63.39307 5.17615 -61.96484 6.29676Q-60.53662 7.41736 -58.14893 7.41736Q-55.92236 7.41736 -54.73584 6.50916Q-53.54932 5.60096 -53.54932 4.03357Q-53.54932 2.46619 -54.64795 1.60926Q-55.74658 0.75232 -58.63232 -0.08264Z" fill="rgb(255, 255, 255)" transform="matrix(1 0 0 1 250 445.072253) translate(0 0)"></path><path d="M-41.69873 -0.49279L-44.30615 2.21717L-44.30615 9.42420L-47.11865 9.42420L-47.11865 -11.90393L-44.30615 -11.90393L-44.30615 -1.35705L-34.82861 -11.90393L-31.43018 -11.90393L-39.82373 -2.48498L-30.77100 9.42420L-34.14014 9.42420Z" fill="rgb(255, 255, 255)" transform="matrix(1 0 0 1 250 445.072253) translate(0 0)"></path><path d="M-20.48779 0.79627L-25.49756 0.79627L-25.49756 9.42420L-28.32471 9.42420L-28.32471 -11.90393L-21.26416 -11.90393Q-17.66064 -11.90393 -15.71973 -10.26330Q-13.77881 -8.62268 -13.77881 -5.48791Q-13.77881 -3.49572 -14.85547 -2.01623Q-15.93213 -0.53674 -17.85107 0.19568L-12.84131 9.24842L-12.84131 9.42420L-15.85889 9.42420ZM-25.49756 -1.50353L-21.17627 -1.50353Q-19.08154 -1.50353 -17.84375 -2.58752Q-16.60596 -3.67150 -16.60596 -5.48791Q-16.60596 -7.46545 -17.78516 -8.52014Q-18.96436 -9.57482 -21.19092 -9.58947L-25.49756 -9.58947Z" fill="rgb(255, 255, 255)" transform="matrix(1 0 0 1 250 445.072253) translate(0 0)"></path><path d="M-6.82080 9.42420L-9.63330 9.42420L-9.63330 -11.90393L-6.82080 -11.90393Z" fill="rgb(255, 255, 255)" transform="matrix(1 0 0 1 250 445.072253) translate(0 0)"></path><path d="M-1.67920 9.42420L-1.67920 -11.90393L5.29346 -11.90393Q8.76514 -11.90393 10.51563 -10.46838Q12.26611 -9.03283 12.26611 -6.22033Q12.26611 -4.72619 11.41650 -3.57629Q10.56689 -2.42639 9.10205 -1.79650Q10.83057 -1.31310 11.83398 0.04188Q12.83740 1.39686 12.83740 3.27186Q12.83740 6.14295 10.97705 7.78357Q9.11670 9.42420 5.71826 9.42420ZM1.13330 -0.55139L1.13330 7.12440L5.77686 7.12440Q7.73975 7.12440 8.87500 6.10633Q10.01025 5.08826 10.01025 3.30115Q10.01025 -0.55139 5.82080 -0.55139ZM1.13330 -2.80725L5.38135 -2.80725Q7.22705 -2.80725 8.33301 -3.73010Q9.43896 -4.65295 9.43896 -6.23498Q9.43896 -7.99279 8.41357 -8.79113Q7.38818 -9.58947 5.29346 -9.58947L1.13330 -9.58947Z" fill="rgb(255, 255, 255)" transform="matrix(1 0 0 1 250 445.072253) translate(0 0)"></path><path d="M16.99756 9.42420L16.99756 -11.90393L23.97021 -11.90393Q27.44189 -11.90393 29.19238 -10.46838Q30.94287 -9.03283 30.94287 -6.22033Q30.94287 -4.72619 30.09326 -3.57629Q29.24365 -2.42639 27.77881 -1.79650Q29.50732 -1.31310 30.51074 0.04188Q31.51416 1.39686 31.51416 3.27186Q31.51416 6.14295 29.65381 7.78357Q27.79346 9.42420 24.39502 9.42420ZM19.81006 -0.55139L19.81006 7.12440L24.45361 7.12440Q26.41650 7.12440 27.55176 6.10633Q28.68701 5.08826 28.68701 3.30115Q28.68701 -0.55139 24.49756 -0.55139ZM19.81006 -2.80725L24.05811 -2.80725Q25.90381 -2.80725 27.00977 -3.73010Q28.11572 -4.65295 28.11572 -6.23498Q28.11572 -7.99279 27.09033 -8.79113Q26.06494 -9.58947 23.97021 -9.58947L19.81006 -9.58947Z" fill="rgb(255, 255, 255)" transform="matrix(1 0 0 1 250 445.072253) translate(0 0)"></path><path d="M38.50146 7.12440L48.60889 7.12440L48.60889 9.42420L35.67432 9.42420L35.67432 -11.90393L38.50146 -11.90393Z" fill="rgb(255, 255, 255)" transform="matrix(1 0 0 1 250 445.072253) translate(0 0)"></path><path d="M63.87256 -0.43420L54.62939 -0.43420L54.62939 7.12440L65.36670 7.12440L65.36670 9.42420L51.81689 9.42420L51.81689 -11.90393L65.22021 -11.90393L65.22021 -9.58947L54.62939 -9.58947L54.62939 -2.73400L63.87256 -2.73400Z" fill="rgb(255, 255, 255)" transform="matrix(1 0 0 1 250 445.072253) translate(0 0)"></path></g></g>

  </svg>