<svg version="1.2" xmlns="http://www.w3.org/2000/svg" viewBox="0 0 800 800" width="800" height="800">
	<style>
		.s0 { fill: #000000;stroke: #000000;stroke-miterlimit:10 } 
		.s1 { fill: #ffffff } 
		.s2 { fill: #ffcb05 } 
	</style>
	<g id="Layer 1">
		<path id="Form 1" fill-rule="evenodd" class="s0" d="m821.39 0v800h-860.66v-800z"/>
		<path id="skribble" class="s1" aria-label="skribble"  d="m269.8 725.7q0-1.9-0.9-3.4-0.8-1.7-3.3-3-2.4-1.3-7.4-2.3-4.2-0.9-7.5-2.1-3.4-1.2-5.8-2.9-2.3-1.7-3.5-4-1.3-2.4-1.3-5.5 0-2.9 1.3-5.6 1.4-2.6 3.8-4.7 2.4-2 5.9-3.2 3.4-1.1 7.6-1.1 6.1 0 10.3 2.1 4.3 2.1 6.6 5.7 2.2 3.5 2.2 7.9h-8.5q0-2.1-1.3-4.1-1.2-2-3.6-3.3-2.3-1.3-5.7-1.3-3.5 0-5.8 1.1-2.2 1.1-3.2 2.8-0.9 1.7-0.9 3.5 0 1.4 0.4 2.5 0.5 1.1 1.8 2 1.2 0.9 3.5 1.7 2.3 0.8 5.8 1.6 6.2 1.3 10.2 3.3 3.9 1.9 5.9 4.8 1.9 2.8 1.9 6.8 0 3.3-1.3 6.1-1.4 2.7-4 4.7-2.5 1.9-6.1 3.1-3.5 1-7.9 1-6.7 0-11.3-2.3-4.6-2.4-6.9-6.2-2.4-3.7-2.4-7.9h8.6q0.2 3.5 2.1 5.6 1.8 2.1 4.5 2.9 2.7 0.9 5.4 0.9 3.5 0 5.8-1 2.5-0.9 3.7-2.5 1.3-1.6 1.3-3.7zm19.7-57.9h8.7v71.2h-8.7zm28.8 21.1h10.5l-21.9 23.4-12.2 12.7-0.7-9.1 8.8-10.5zm12.7 50.2h-10.1l-17.9-24 4.5-7.6zm14.7-50.2l0.3 7.9v42.3h-8.6v-50.2zm15.9-0.3v8q-1.1-0.2-2.1-0.3-0.9-0.1-2.1-0.1-3 0-5.3 0.9-2.2 1-3.8 2.6-1.6 1.7-2.5 4-0.9 2.3-1.2 5l-2.4 1.4q0-4.5 0.9-8.5 0.9-4 2.8-7.1 1.9-3.1 4.8-4.8 3-1.7 7.1-1.7 0.9 0 2.1 0.2 1.2 0.2 1.7 0.4zm8.4 0.3h8.7v50.2h-8.7zm-0.6-13.3q0-2.1 1.2-3.6 1.3-1.4 3.8-1.4 2.5 0 3.8 1.4 1.3 1.5 1.3 3.6 0 2-1.3 3.4-1.3 1.4-3.8 1.4-2.5 0-3.8-1.4-1.2-1.4-1.2-3.4zm23.9 63.5v-71.3h8.6v61.5l-0.7 9.8zm42.5-25.5v0.9q0 5.5-1.3 10.2-1.3 4.6-3.8 8.1-2.5 3.4-6.1 5.3-3.6 1.9-8.3 1.9-4.8 0-8.4-1.6-3.6-1.7-6-4.8-2.5-3.1-4-7.5-1.4-4.4-2-10v-4.2q0.6-5.6 2-10 1.5-4.4 4-7.5 2.4-3.2 6-4.8 3.6-1.7 8.3-1.7 4.7 0 8.4 1.9 3.7 1.8 6.1 5.2 2.5 3.4 3.8 8.1 1.3 4.7 1.3 10.5zm-8.6 0.9v-0.9q0-3.8-0.7-7.1-0.7-3.3-2.2-5.8-1.6-2.6-4.1-4-2.5-1.5-6.1-1.5-3.3 0-5.7 1.1-2.4 1.1-4 3-1.7 1.9-2.8 4.3-1 2.3-1.5 4.9v11.2q0.7 3.2 2.4 6.2 1.7 3 4.6 4.9 2.8 1.9 7.1 1.9 3.4 0 5.9-1.4 2.5-1.4 4-3.9 1.6-2.5 2.3-5.8 0.8-3.3 0.8-7.1zm19.1 24.6v-71.3h8.6v61.5l-0.7 9.8zm42.5-25.5v0.9q0 5.5-1.3 10.2-1.3 4.6-3.8 8.1-2.5 3.4-6.1 5.3-3.6 1.9-8.3 1.9-4.8 0-8.4-1.6-3.6-1.7-6.1-4.8-2.4-3.1-3.9-7.5-1.4-4.4-2-10v-4.2q0.6-5.6 2-10 1.5-4.4 3.9-7.5 2.5-3.2 6.1-4.8 3.5-1.7 8.3-1.7 4.7 0 8.4 1.9 3.6 1.8 6.1 5.2 2.5 3.4 3.8 8.1 1.3 4.7 1.3 10.5zm-8.6 0.9v-0.9q0-3.8-0.7-7.1-0.7-3.3-2.2-5.8-1.6-2.6-4.1-4-2.5-1.5-6.2-1.5-3.2 0-5.6 1.1-2.4 1.1-4 3-1.7 1.9-2.8 4.3-1 2.3-1.5 4.9v11.2q0.7 3.2 2.4 6.2 1.7 3 4.5 4.9 2.9 1.9 7.1 1.9 3.5 0 6-1.4 2.5-1.4 4-3.9 1.6-2.5 2.3-5.8 0.8-3.3 0.8-7.1zm19.8-46.7h8.6v71.3h-8.6zm43.1 72.1q-5.2 0-9.5-1.7-4.2-1.8-7.3-5.1-3-3.2-4.6-7.7-1.6-4.4-1.6-9.7v-2q0-6.1 1.8-10.9 1.8-4.8 4.9-8.1 3.1-3.4 7.1-5.1 3.9-1.7 8.1-1.7 5.4 0 9.3 1.9 3.9 1.8 6.5 5.1 2.5 3.3 3.7 7.8 1.2 4.5 1.2 9.8v3.8h-37.5v-7h28.9v-0.6q-0.2-3.4-1.4-6.5-1.2-3.2-3.7-5.2-2.6-2.1-7-2.1-2.9 0-5.4 1.3-2.4 1.2-4.2 3.6-1.7 2.4-2.7 5.9-1 3.5-1 8v2q0 3.6 1 6.7 1 3.1 2.9 5.5 2 2.3 4.7 3.7 2.8 1.3 6.3 1.3 4.5 0 7.7-1.8 3.2-1.9 5.5-5l5.2 4.1q-1.6 2.5-4.1 4.7-2.5 2.3-6.2 3.7-3.6 1.3-8.6 1.3z"/>
		<path id="X" class="s2" aria-label="X"  d="m546.2 157.4l-145.1 138.2-172.7-183.1q-5.8 1.1-13.8 12.6-8.1 10.4-16.2 21.9-8 11.5-17.2 21.9-9.2 9.2-16.2 9.2-3.4 0-4.6-3.4 2.3 3.4 24.2 29.9 21.9 25.4 49.5 58.7 28.8 33.4 56.5 65.7 28.8 31.1 43.7 47.2l-39.1 57.6q-10.4 11.5-17.3 21.9-6.9 9.2-18.4 19.6-10.4 10.3-25.4 24.1-14.9 13.9-39.1 35.7-26.5 23.1-35.7 34.6-9.2 11.5-9.2 18.4 0 6.9 11.5 11.5 11.5 3.5 27.6 8.1 17.3 3.5 35.7 6.9 19.6 2.3 32.3 5.8l20.7-10.4q3.5-2.3 5.8-3.5 3.4-1.1 6.9-3.4 3.4-2.3 5.7-6.9 3.5-5.8 6.9-17.3 15-15 24.2-27.6 10.4-12.7 19.6-25.4 9.2-12.6 20.7-27.6 11.6-15 31.1-36.9 13.9 16.2 23.1 30 9.2 12.6 17.2 24.2 8.1 10.3 16.2 21.8 9.2 10.4 21.8 21.9 0 16.2 9.3 23.1 10.3 5.7 16.1 8l20.7 10.4q19.6-6.9 38-9.2 19.6-2.3 34.6-5.8 16.1-3.4 25.3-8 9.2-5.8 9.2-17.3 0-9.2-11.5-23.1-10.4-13.8-32.2-35.7-21.9-23-53-55.2-31.1-32.3-70.3-77.2 16.1-24.2 39.2-56.4 24.2-32.3 46-62.2 23.1-30 38.1-49.5 16.1-20.8 16.1-20.8-3.5 5.8-10.4 5.8-3.4 0-10.4-3.5-6.9-3.4-13.8-8-6.9-5.8-12.6-10.4-5.8-4.6-9.3-6.9z"/>
	</g>
</svg>